<svg xmlns="http://www.w3.org/2000/svg" viewBox="0 0 200 220" role="img" aria-label="Rottweil aktiv">
  <!-- Bag handle -->
  <path d="M62 58 C62 30 80 14 100 14 C120 14 138 30 138 58"
        fill="none" stroke="#F5B800" stroke-width="13" stroke-linecap="round"/>
  <!-- Bag body -->
  <path d="M40 52 H160 L168 196 H32 Z" fill="#F5B800"/>
  <!-- Inner white panel -->
  <rect x="52" y="92" width="96" height="88" rx="4" fill="#ffffff"/>
  <!-- City skyline silhouette -->
  <g fill="#1a1a1a">
    <rect x="60" y="120" width="9" height="30"/>
    <rect x="72" y="108" width="11" height="42"/>
    <polygon points="83,108 88,96 93,108"/>
    <rect x="86" y="116" width="10" height="34"/>
    <rect x="99" y="100" width="12" height="50"/>
    <polygon points="99,100 105,88 111,100"/>
    <rect x="114" y="118" width="9" height="32"/>
    <rect x="126" y="110" width="11" height="40"/>
    <polygon points="126,110 131.5,100 137,110"/>
  </g>
  <!-- Wordmark -->
  <text x="100" y="166" text-anchor="middle" font-family="Poppins, Arial, sans-serif" font-weight="800" font-size="20" fill="#1a1a1a" letter-spacing="0.5">ROTTWEIL</text>
  <text x="100" y="184" text-anchor="middle" font-family="Poppins, Arial, sans-serif" font-weight="600" font-size="14" fill="#1a1a1a">aktiv.de</text>
</svg>
